<svg xmlns="http://www.w3.org/2000/svg" width="400" height="220" viewBox="0 0 400 220">
  <defs>
    <linearGradient id="bg2" x1="0%" y1="0%" x2="100%" y2="100%">
      <stop offset="0%" style="stop-color:#0f172a"/>
      <stop offset="100%" style="stop-color:#1e293b"/>
    </linearGradient>
  </defs>
  <rect width="400" height="220" fill="url(#bg2)" rx="10"/>
  <!-- Mesh network nodes -->
  <circle cx="80"  cy="60"  r="12" fill="#3b82f6" opacity="0.9"/>
  <circle cx="200" cy="40"  r="12" fill="#3b82f6" opacity="0.9"/>
  <circle cx="320" cy="60"  r="12" fill="#3b82f6" opacity="0.9"/>
  <circle cx="50"  cy="150" r="12" fill="#3b82f6" opacity="0.7"/>
  <circle cx="160" cy="130" r="12" fill="#2563eb" opacity="0.9"/>
  <circle cx="240" cy="130" r="12" fill="#2563eb" opacity="0.9"/>
  <circle cx="350" cy="150" r="12" fill="#3b82f6" opacity="0.7"/>
  <circle cx="130" cy="190" r="10" fill="#3b82f6" opacity="0.6"/>
  <circle cx="270" cy="190" r="10" fill="#3b82f6" opacity="0.6"/>
  <!-- Mesh connections -->
  <line x1="80"  y1="60"  x2="200" y2="40"  stroke="#3b82f6" stroke-width="1.5" opacity="0.5"/>
  <line x1="200" y1="40"  x2="320" y2="60"  stroke="#3b82f6" stroke-width="1.5" opacity="0.5"/>
  <line x1="80"  y1="60"  x2="160" y2="130" stroke="#3b82f6" stroke-width="1.5" opacity="0.5"/>
  <line x1="200" y1="40"  x2="160" y2="130" stroke="#3b82f6" stroke-width="1.5" opacity="0.5"/>
  <line x1="200" y1="40"  x2="240" y2="130" stroke="#3b82f6" stroke-width="1.5" opacity="0.5"/>
  <line x1="320" y1="60"  x2="240" y2="130" stroke="#3b82f6" stroke-width="1.5" opacity="0.5"/>
  <line x1="160" y1="130" x2="240" y2="130" stroke="#3b82f6" stroke-width="2" opacity="0.7"/>
  <line x1="50"  y1="150" x2="160" y2="130" stroke="#3b82f6" stroke-width="1" opacity="0.4"/>
  <line x1="350" y1="150" x2="240" y2="130" stroke="#3b82f6" stroke-width="1" opacity="0.4"/>
  <line x1="130" y1="190" x2="160" y2="130" stroke="#3b82f6" stroke-width="1" opacity="0.3"/>
  <line x1="270" y1="190" x2="240" y2="130" stroke="#3b82f6" stroke-width="1" opacity="0.3"/>
  <!-- Node count label -->
  <text x="185" y="125" font-family="monospace" font-size="9" fill="#93c5fd" text-anchor="middle">MESH</text>
  <!-- Label -->
  <rect x="10" y="10" width="190" height="24" rx="4" fill="#3b82f6" opacity="0.15"/>
  <text x="20" y="27" font-family="monospace" font-size="12" fill="#3b82f6" font-weight="bold">Wireless Mesh · 2500+ Units</text>
  <!-- Tech badges -->
  <rect x="10" y="190" width="60" height="18" rx="9" fill="#3b82f6" opacity="0.2"/>
  <text x="18" y="203" font-family="monospace" font-size="9" fill="#3b82f6">Smart Card</text>
  <rect x="78" y="190" width="55" height="18" rx="9" fill="#3b82f6" opacity="0.2"/>
  <text x="86" y="203" font-family="monospace" font-size="9" fill="#3b82f6">Firmware</text>
  <rect x="141" y="190" width="65" height="18" rx="9" fill="#3b82f6" opacity="0.2"/>
  <text x="150" y="203" font-family="monospace" font-size="9" fill="#3b82f6">Remote Mgmt</text>
</svg>
