<svg xmlns="http://www.w3.org/2000/svg" width="200" height="200" viewBox="0 0 200 200">
  <g fill="none" stroke="#2196F3" stroke-width="1.5">
    <circle cx="100" cy="100" r="40" />
    <circle cx="100" cy="100" r="30" />
    <circle cx="100" cy="100" r="20" />
    
    <!-- Circuit lines -->
    <path d="M100,60 L100,20" />
    <path d="M100,140 L100,180" />
    <path d="M60,100 L20,100" />
    <path d="M140,100 L180,100" />
    
    <!-- Diagonal lines -->
    <path d="M130,70 L170,30" />
    <path d="M70,130 L30,170" />
    <path d="M130,130 L170,170" />
    <path d="M70,70 L30,30" />
    
    <!-- Connection points -->
    <circle cx="100" cy="20" r="3" fill="#2196F3" />
    <circle cx="100" cy="180" r="3" fill="#2196F3" />
    <circle cx="20" cy="100" r="3" fill="#2196F3" />
    <circle cx="180" cy="100" r="3" fill="#2196F3" />
    <circle cx="170" cy="30" r="3" fill="#2196F3" />
    <circle cx="30" cy="170" r="3" fill="#2196F3" />
    <circle cx="170" cy="170" r="3" fill="#2196F3" />
    <circle cx="30" cy="30" r="3" fill="#2196F3" />
    
    <!-- Center node -->
    <circle cx="100" cy="100" r="5" fill="#2196F3" />
  </g>
</svg> 