<svg xmlns="http://www.w3.org/2000/svg" width="100" height="100" viewBox="0 0 100 100">
  <defs>
    <pattern id="circuit" width="100" height="100" patternUnits="userSpaceOnUse">
      <path d="M10,10 L40,10 L40,40 L70,40 L70,70 L90,70" stroke="#2196F3" stroke-width="1" fill="none" />
      <path d="M30,20 L50,20 L50,50 L20,50 L20,80" stroke="#2196F3" stroke-width="1" fill="none" />
      <path d="M80,30 L80,60 L60,60" stroke="#2196F3" stroke-width="1" fill="none" />
      <path d="M10,90 L40,90 L40,70" stroke="#2196F3" stroke-width="1" fill="none" />
      <circle cx="10" cy="10" r="2" fill="#2196F3" />
      <circle cx="40" cy="10" r="2" fill="#2196F3" />
      <circle cx="40" cy="40" r="2" fill="#2196F3" />
      <circle cx="70" cy="40" r="2" fill="#2196F3" />
      <circle cx="70" cy="70" r="2" fill="#2196F3" />
      <circle cx="90" cy="70" r="2" fill="#2196F3" />
      <circle cx="30" cy="20" r="2" fill="#2196F3" />
      <circle cx="50" cy="20" r="2" fill="#2196F3" />
      <circle cx="50" cy="50" r="2" fill="#2196F3" />
      <circle cx="20" cy="50" r="2" fill="#2196F3" />
      <circle cx="20" cy="80" r="2" fill="#2196F3" />
      <circle cx="80" cy="30" r="2" fill="#2196F3" />
      <circle cx="80" cy="60" r="2" fill="#2196F3" />
      <circle cx="60" cy="60" r="2" fill="#2196F3" />
      <circle cx="10" cy="90" r="2" fill="#2196F3" />
      <circle cx="40" cy="90" r="2" fill="#2196F3" />
      <circle cx="40" cy="70" r="2" fill="#2196F3" />
    </pattern>
  </defs>
  <rect width="100%" height="100%" fill="url(#circuit)" />
</svg> 